<svg width="600" height="600" viewBox="0 0 600 600" fill="none" xmlns="http://www.w3.org/2000/svg">
<rect width="600" height="600" fill="black" fill-opacity="0"/>
<path d="M228.291 348.087C200.15 339.998 179.642 330.086 166.768 318.351C154.007 306.502 147.627 291.918 147.627 274.601C147.627 255.004 155.431 238.826 171.04 226.065C186.763 213.191 207.157 206.754 232.222 206.754C249.312 206.754 264.521 210.058 277.852 216.666C291.296 223.274 301.663 232.389 308.955 244.01C316.361 255.631 320.063 268.334 320.063 282.12H287.08C287.08 267.081 282.295 255.289 272.725 246.744C263.154 238.085 249.653 233.756 232.222 233.756C216.043 233.756 203.397 237.345 194.282 244.522C185.282 251.586 180.781 261.441 180.781 274.088C180.781 284.228 185.054 292.83 193.599 299.894C202.257 306.843 216.898 313.224 237.52 319.034C258.255 324.845 274.434 331.282 286.055 338.346C297.79 345.296 306.449 353.442 312.031 362.784C317.728 372.127 320.576 383.121 320.576 395.768C320.576 415.934 312.715 432.112 296.992 444.303C281.27 456.38 260.249 462.418 233.931 462.418C216.841 462.418 200.89 459.171 186.079 452.677C171.268 446.069 159.818 437.068 151.729 425.675C143.753 414.282 139.766 401.35 139.766 386.881H172.749C172.749 401.92 178.275 413.826 189.326 422.599C200.492 431.257 215.36 435.587 233.931 435.587C251.248 435.587 264.521 432.055 273.75 424.991C282.979 417.927 287.593 408.3 287.593 396.109C287.593 383.919 283.32 374.519 274.775 367.911C266.23 361.189 250.736 354.581 228.291 348.087Z" fill="white"/>
<path d="M411.572 101.172H444.556V277.368C444.556 301.18 437.378 319.808 423.022 333.252C408.781 346.696 389.754 353.418 365.942 353.418C341.219 353.418 321.965 347.095 308.179 334.448C294.393 321.802 287.5 304.085 287.5 281.299H320.312C320.312 295.54 324.186 306.649 331.934 314.624C339.795 322.599 351.131 326.587 365.942 326.587C379.5 326.587 390.438 322.314 398.755 313.77C407.186 305.225 411.458 293.262 411.572 277.881V101.172Z" fill="white"/>
<rect x="412" y="277" width="32" height="209" fill="white"/>
<rect x="455" y="101" width="18" height="78" fill="white"/>
<path d="M444 496H412V503.091L428 522L444 503.091V496Z" fill="white"/>
<rect x="412" y="72" width="32" height="17" fill="white"/>
</svg>
