<?xml version="1.0" encoding="utf-8"?>
<!--Designed by Vexels.com - 2017 All Rights Reserved - https://vexels.com/terms-and-conditions/-->
<svg version="1.1" id="Layer_1" xmlns="http://www.w3.org/2000/svg" xmlns:xlink="http://www.w3.org/1999/xlink" x="0px" y="0px"
	 viewBox="0 0 1200 1200" enable-background="new 0 0 1200 1200" xml:space="preserve">
<g>
	<g>
		<g>
			<g>
				<path fill="#8E9698" d="M645.98,267.136H554.02c-24.409,0-44.197-19.788-44.197-44.197v-94
					c0-24.409,19.788-44.197,44.197-44.197h91.959c24.409,0,44.197,19.788,44.197,44.197v94
					C690.177,247.348,670.389,267.136,645.98,267.136z"/>
			</g>
			<g>
				<g>
					<path fill="#F49B8F" d="M676.481,177.896c0,0,19.2-4.49,19.142,23.012s-27.561,25.257-29.806,17.96
						C663.572,211.571,676.481,177.896,676.481,177.896z"/>
				</g>
				<g>
					<path fill="#F49B8F" d="M523.519,177.896c0,0-19.2-4.49-19.142,23.012s27.561,25.257,29.806,17.96
						C536.428,211.571,523.519,177.896,523.519,177.896z"/>
				</g>
			</g>
			<g>
				<path fill="#D0BFC2" d="M592.517,1124.322V727.651c0-4.185,3.392-7.577,7.577-7.577s7.577,3.392,7.577,7.577v396.671
					l43.741-16.557l38.765-459.533H509.348l38.765,459.533L592.517,1124.322z"/>
			</g>
			<g>
				<g>
					<g>
						<path fill="#15C4B3" d="M705.876,1141.826l-55.268-25.501l0.735-8.081c-15.242,2.862-30.182,6.851-43.672,13.116v22.187
							c0,3.565,2.89,6.455,6.454,6.455h89.506C708.1,1150,709.718,1144.107,705.876,1141.826z"/>
					</g>
					<g>
						<path fill="#FFFFFF" d="M650.608,1116.324l-41.462,18.671c-2.288,0.99-4.843-0.687-4.843-3.181v-17.786
							c0-1.613,1.113-3.013,2.684-3.377l44.786-10.761c1.85-0.428,3.469,1.308,2.913,3.124L650.608,1116.324z"/>
					</g>
				</g>
				<g>
					<g>
						<path fill="#15C4B3" d="M493.649,1141.826l55.268-25.501l-0.735-8.081c15.242,2.862,30.182,6.851,43.672,13.116v22.187
							c0,3.565-2.89,6.455-6.454,6.455h-89.506C491.425,1150,489.807,1144.107,493.649,1141.826z"/>
					</g>
					<g>
						<path fill="#FFFFFF" d="M548.917,1116.324l41.462,18.671c2.288,0.99,4.843-0.687,4.843-3.181v-17.786
							c0-1.613-1.113-3.013-2.684-3.377l-44.786-10.761c-1.85-0.428-3.469,1.308-2.913,3.124L548.917,1116.324z"/>
					</g>
				</g>
			</g>
			<g>
				<g>
					<path fill="#DED2D4" d="M472.635,683.171c0,0-11.576,27.572-9.892,45.252s12.734,45.357,29.571,48.724
						s13.114-16.049,13.114-16.049s-21.177-16.471-23.42-30.98s2.294-20.415,2.294-20.415s7.896,27.776,14.317,29.46
						s11.126-13.895,3.724-33.258c-7.402-19.363-9.082-39.151-9.082-39.151h-20.205L472.635,683.171z"/>
				</g>
				<g>
					<path fill="#00AEAC" d="M488.21,316.527c0,0-23.178,18.662-27.668,55.705s0.167,316.411,0.167,316.411h40.972
						C501.68,688.643,516.742,368.444,488.21,316.527z"/>
				</g>
			</g>
			<g>
				<g>
					<path fill="#DED2D4" d="M727.365,683.171c0,0,11.576,27.572,9.892,45.252s-12.734,45.357-29.571,48.724
						s-13.114-16.049-13.114-16.049s21.177-16.471,23.42-30.98c2.244-14.509-2.294-20.415-2.294-20.415s-7.896,27.776-14.317,29.46
						s-11.126-13.895-3.724-33.258c7.402-19.363,9.083-39.151,9.083-39.151h20.205L727.365,683.171z"/>
				</g>
				<g>
					<path fill="#00AEAC" d="M711.79,316.527c0,0,23.178,18.662,27.669,55.705s-0.167,316.411-0.167,316.411H698.32
						C698.32,688.643,683.258,368.444,711.79,316.527z"/>
				</g>
			</g>
			<g>
				<path fill="#15C4B3" d="M701.374,443.372l10.835-126.845l-86.848-22.752c-15.793-6.081-33.282-6.081-49.075,0l-88.076,22.752
					l10.416,126.845c6.684,194.862,1.187,403.583-0.072,446.204c-0.127,4.302,3.327,7.857,7.631,7.857h39.273h109.92h38.692
					c4.21,0,7.626-3.396,7.634-7.606C701.794,846.88,702.182,630.019,701.374,443.372z"/>
			</g>
			<g>
				<path fill="#00AEAC" d="M635.773,296.503c0,0-10.636,46.123-35.564,46.544c-24.928,0.421-35.982-46.156-35.982-46.156
					l35.634-13.197L635.773,296.503z"/>
			</g>
			<g>
				<g>
					<path fill="#F49B8F" d="M642.028,252.543l-25.281,64.347c-5.806,14.768-27.739,14.741-33.537-0.03l-25.238-64.317H642.028z"/>
				</g>
				<g>
					<path fill="#F7B4AB" d="M606.05,286.622h-12.1c-39.802,0-72.068-32.266-72.068-72.068v-57.491
						c0-39.802,32.266-72.068,72.068-72.068h12.1c39.802,0,72.068,32.266,72.068,72.068v57.491
						C678.118,254.356,645.852,286.622,606.05,286.622z"/>
				</g>
			</g>
			<g>
				<g>
					<circle fill="#253847" cx="564.227" cy="195.582" r="8.419"/>
				</g>
				<g>
					<circle fill="#253847" cx="635.773" cy="195.582" r="8.419"/>
				</g>
			</g>
			<g>
				<path fill="#F49B8F" d="M614.961,212.21c0,0-3.397-15.786-14.961-16.628s-22.097,27.074-9.076,35.914
					C603.944,240.336,614.961,232.338,614.961,212.21z"/>
			</g>
			<g>
				<g>
					<path fill="#8E9698" d="M623.959,181.639c-1.238,0-2.465-0.543-3.296-1.588c-1.448-1.819-1.147-4.467,0.673-5.915
						c11.933-9.494,24.3-4.75,29.17-0.914c1.826,1.439,2.141,4.085,0.702,5.912c-1.434,1.819-4.066,2.138-5.891,0.719
						c-0.941-0.718-9.293-6.646-18.74,0.871C625.803,181.34,624.878,181.639,623.959,181.639z"/>
				</g>
			</g>
			<g>
				<g>
					<path fill="#8E9698" d="M552.257,181.639c-1.238,0-2.465-0.544-3.296-1.588c-1.448-1.819-1.147-4.468,0.673-5.915
						c11.933-9.494,24.3-4.75,29.171-0.914c1.826,1.439,2.141,4.085,0.702,5.912c-1.433,1.819-4.063,2.138-5.891,0.719
						c-0.941-0.718-9.29-6.646-18.74,0.871C554.101,181.34,553.176,181.639,552.257,181.639z"/>
				</g>
			</g>
			<g>
				<g>
					<g>
						<path fill="#00BAAC" d="M499.89,614.299l38.565-13.54c4.14-1.454,8.659,1.194,8.659,5.075v114.38
							c0,3.023-2.82,5.473-6.299,5.473h-38.783c-3.483,0-6.305-2.457-6.299-5.484l0.218-100.84
							C495.956,617.136,497.513,615.134,499.89,614.299z"/>
					</g>
				</g>
				<g>
					<g>
						<path fill="#00BAAC" d="M700.528,614.299l-38.565-13.54c-4.14-1.454-8.659,1.194-8.659,5.075v114.38
							c0,3.023,2.82,5.473,6.299,5.473h38.783c3.483,0,6.305-2.457,6.299-5.484l-0.218-100.84
							C704.463,617.136,702.905,615.134,700.528,614.299z"/>
					</g>
				</g>
			</g>
			<g>
				<g>
					<circle fill="#00AEAC" cx="658.193" cy="366.237" r="10.485"/>
				</g>
				<g>
					<g>
						<path fill="#00AEAC" d="M629.008,392.49v-18.015c0-4.55,3.688-8.238,8.238-8.238h41.895c4.55,0,8.238,3.688,8.238,8.238
							v18.015c0,4.55-3.688,8.238-8.238,8.238h-41.895C632.696,400.728,629.008,397.04,629.008,392.49z"/>
					</g>
					<g>
						<path fill="#FFFFFF" d="M681.02,396.422h-45.654c-1.129,0-2.052-0.924-2.052-2.052v-21.775c0-1.129,0.924-2.052,2.052-2.052
							h45.654c1.129,0,2.052,0.923,2.052,2.052v21.775C683.073,395.499,682.149,396.422,681.02,396.422z"/>
					</g>
				</g>
			</g>
			<g>
				<g>
					<path fill="#EDE6E7" d="M674.349,207.796l-8.794,14.16c0,0-36.993-17.956-64.966-17.956s-62.21,23.286-62.21,23.286
						l-14.591-26.803c-1.065-2.23-4.435-0.916-3.708,1.446l12.126,30.408c0,0,0.561,30.869,18.522,42.656
						c18.273,11.991,35.331,15.844,59.708,13.312c25.494-2.648,52.157-12.181,60.171-57.411l7.326-21.399
						C678.702,207.248,675.602,205.778,674.349,207.796z"/>
				</g>
				<g>
					<path fill="#E6DCDD" d="M648.947,239.073c7.352-4.902,12.909-10.699,16.045-17.384c-3.914-1.847-28.291-13.034-51.391-16.596
						c0.132,11.198,1.936,20.907,8.406,30.612C626.926,240.494,638.844,244.124,648.947,239.073z"/>
				</g>
				<g>
					<path fill="#E6DCDD" d="M574.861,239.073c7.834-7.834,9.591-20.728,10.771-33.191c-21.519,4.975-42.596,18.343-46.565,20.948
						c1.349,3.195,3.121,6.357,5.176,9.418c-0.622-2.004-1.454-3.991-3.058-5.594c1.604,1.604,2.436,3.591,3.058,5.594
						c0.361,0.537,0.73,1.071,1.108,1.601c6.577,9.227,19.967,10.925,28.005,2.939C573.924,240.223,574.429,239.648,574.861,239.073
						z"/>
				</g>
			</g>
			<g>
				<g>
					<path fill="#8E9698" d="M674.58,139.178c0,0-16.366,38.446-0.938,76.667c0.727,1.801,3.343,1.782,4.191,0.035
						C683.324,204.565,691.679,167.512,674.58,139.178z"/>
				</g>
				<g>
					<path fill="#8E9698" d="M525.135,139.178c0,0,14.682,38.446-0.745,76.667c-0.727,1.801-3.344,1.782-4.191,0.035
						C514.707,204.565,508.035,167.512,525.135,139.178z"/>
				</g>
			</g>
		</g>
		<g>
			<path fill="#15C4B3" d="M687.027,149.495c1.336-0.306,2.315-1.45,2.417-2.817c0.743-9.989,2.977-49.888-7.194-66.34
				c-11.672-18.88-119.08-62.034-168.057,8.99c-5.375,12.409-4.154,48.234-3.717,57.841c0.065,1.423,1.08,2.611,2.476,2.897
				C527.518,153.058,607.286,167.774,687.027,149.495z"/>
		</g>
	</g>
	<g>
		<g opacity="0.37">
			<g>
				<path fill="#FFFFFF" d="M580.851,212.974h-29.991c-2.852,0-5.165-2.312-5.165-5.165v-7.063c0-2.852,2.312-5.165,5.165-5.165
					h29.991c2.852,0,5.165,2.312,5.165,5.165v7.063C586.015,210.662,583.703,212.974,580.851,212.974z"/>
			</g>
			<g>
				<path fill="#FFFFFF" d="M649.141,212.974h-29.991c-2.852,0-5.165-2.312-5.165-5.165v-7.063c0-2.852,2.312-5.165,5.165-5.165
					h29.991c2.852,0,5.165,2.312,5.165,5.165v7.063C654.305,210.662,651.993,212.974,649.141,212.974z"/>
			</g>
		</g>
		<g>
			<g>
				<path fill="#253847" d="M577.594,215.012h-23.477c-5.768,0-10.46-4.691-10.46-10.459v-0.549c0-5.768,4.693-10.46,10.46-10.46
					h23.477c5.768,0,10.46,4.693,10.46,10.46v0.549C588.053,210.321,583.361,215.012,577.594,215.012z M554.117,197.62
					c-3.52,0-6.384,2.863-6.384,6.384v0.549c0,3.519,2.864,6.382,6.384,6.382h23.477c3.52,0,6.383-2.863,6.383-6.382v-0.549
					c0-3.521-2.863-6.384-6.383-6.384H554.117z"/>
			</g>
			<g>
				<path fill="#253847" d="M645.884,215.012h-23.477c-5.768,0-10.46-4.691-10.46-10.459v-0.549c0-5.768,4.693-10.46,10.46-10.46
					h23.477c5.768,0,10.46,4.693,10.46,10.46v0.549C656.343,210.321,651.651,215.012,645.884,215.012z M622.407,197.62
					c-3.52,0-6.384,2.863-6.384,6.384v0.549c0,3.519,2.864,6.382,6.384,6.382h23.477c3.52,0,6.383-2.863,6.383-6.382v-0.549
					c0-3.521-2.863-6.384-6.383-6.384H622.407z"/>
			</g>
		</g>
		<g>
			<path fill="#253847" d="M586.001,208.288c-0.236,0-0.475-0.041-0.709-0.127c-1.053-0.392-1.591-1.559-1.202-2.613
				c0.178-0.481,4.474-11.766,15.869-12.003c0.126-0.002,0.252-0.003,0.377-0.003c11.135,0,15.403,10.35,15.581,10.796
				c0.418,1.045-0.091,2.231-1.136,2.65c-1.042,0.416-2.226-0.091-2.647-1.131c-0.143-0.35-3.466-8.239-11.814-8.239
				c-0.092,0-0.183,0.002-0.277,0.003c-8.589,0.178-11.99,8.97-12.131,9.344C587.604,207.781,586.826,208.288,586.001,208.288z"/>
		</g>
	</g>
</g>
</svg>
