<?xml version="1.0" encoding="utf-8"?>
<!--Designed by Vexels.com - 2017 All Rights Reserved - https://vexels.com/terms-and-conditions/-->
<svg version="1.1" id="Layer_1" xmlns="http://www.w3.org/2000/svg" xmlns:xlink="http://www.w3.org/1999/xlink" x="0px" y="0px"
	 viewBox="0 0 1200 1200" enable-background="new 0 0 1200 1200" xml:space="preserve">
<g>
	<path fill="#141314" d="M560.834,1078.316l1.756,43.08c0,0-16.078,8.515-24.474,10.097c-8.396,1.582-44.797,22.864-74.886,17.701
		c-4.2-10.377-6.891-22.977-6.891-22.977s54.362-8.497,68.508-47.901C538.993,1071.031,560.834,1078.316,560.834,1078.316z"/>
	<path fill="#141314" d="M670.938,1064.359c0,0,1.766,29.685,1.766,36.114c23.24,9.978,40.589,29.702,83.38,26.775
		c2.866-13.256,5.044-23.333,5.044-23.333s-33.863-11.919-56.094-39.557C687.183,1063.731,670.938,1064.359,670.938,1064.359z"/>
	<path fill="#193747" d="M513.045,625.835c0,0,10.179,332.066,9.06,456.278c36.389,9.091,43.9-2.662,43.9-2.662
		s14.585-337.026,29.154-387.342c12.608-0.662,22.158-0.906,22.158-0.906s38.392,193.658,46.951,375.317
		c17.951,8.013,46.31-0.485,46.31-0.485s-24.109-385.791-14.87-453.685C596.903,631.805,513.045,625.835,513.045,625.835z"/>
	<path fill="#142B35" d="M537.606,1085.023c0.207-63.378,1.793-386.167,12.674-424.984c67.553-10.95,140.141-46.671,140.141-46.671
		l-0.001,0c-96.49,18.223-177.375,12.467-177.375,12.467s10.178,332.066,9.059,456.278
		C528.005,1083.587,533.134,1084.506,537.606,1085.023z"/>
	<path fill="#142B35" d="M681.466,1069.928c-4.077-67.502-22.592-332.77-64.149-378.725c0,0,38.392,193.658,46.951,375.317
		C669.445,1068.831,675.488,1069.764,681.466,1069.928z"/>
	<path fill="#D39B8D" d="M501.593,622.705c0,0,4.273,6.799,8.013,9.975c3.741,3.175,13.326,4.624,13.326,4.624
		c8.76,27.846-5.84,53.9-5.84,53.9s-18.98-21.674-21.535-31.894c-2.555-10.22-7.3-20.77-7.3-20.77S498.36,634.111,501.593,622.705z"
		/>
	<path fill="#BA887F" d="M506.539,629.497c-2.677-3.187-4.946-6.792-4.946-6.792c-3.234,11.406-13.336,15.835-13.336,15.835
		s1.632,3.636,3.496,8.695C502.186,641.274,505.505,634.022,506.539,629.497z"/>
	<path fill="#F4F1DF" d="M497.719,610.216l5.839,10.806c0,0,1.35,13.468-16.831,22.958c-3.215-4.745-8.313-13.505-8.313-13.505
		L497.719,610.216z"/>
	<path fill="#4076CC" d="M488.467,634.486c6.202-6.193,9.737-14.697,12.331-23.696c-16.507-42.921-26.922-113.998,8.767-187.743
		c13.368-47.71-22.48-85.058-22.48-85.058s-101.508,127.383-9.944,299.314C481.127,637.005,484.948,636.029,488.467,634.486z"/>
	<path fill="#F9C2B2" d="M701.12,604.644l11.021,21.191c0,0-4.185,7.12-7.106,10.638c-2.921,3.519-5.9,29.041-14.613,32.691
		c-5.793-25.185,0-55.796,0-55.796L701.12,604.644z"/>
	<path fill="#F4F1DF" d="M706.577,592.848l14.955,24.181l-8.034,15.651c0,0-14.346-10.083-15.553-28.036
		C702.745,596.226,706.577,592.848,706.577,592.848z"/>
	<path fill="#D8D5C5" d="M721.532,617.029l-14.955-24.181c0,0-2.676,2.368-6.353,8.047c-0.227,0.855-0.453,1.716-0.687,2.546
		c4.247,8.739,9.519,17.608,15.929,25.404L721.532,617.029z"/>
	<path fill="#4076CC" d="M699.537,599.726c5.143,10.582,11.76,21.38,20.122,30.198c72.104-160.768-4.405-314.705-4.405-314.705
		l-26.811,10.587c0,0-14.188,47.464-4.928,96.15C714.617,490.58,710.757,559.957,699.537,599.726z"/>
	<path fill="#4E80E5" d="M487.084,337.989c0,0,99.777-34.954,228.17-22.771c-40.977,215.61-15.339,304.148-15.339,304.148
		s-127.566,35.468-191.03,9.731C524.862,453.935,487.084,337.989,487.084,337.989z"/>
	<path fill="#335DA0" d="M563.845,327.888c0,0,23.172,48.545,37.85,63.51c13.583-15.33,37.308-58.035,40.593-71.175
		C604.693,313.653,567.892,323.873,563.845,327.888z"/>
	<path opacity="0.5" fill="#335DA0" d="M624.247,350.449l-11.761,8.245c0,0,10.307,25.161,8.801,34.164
		C630,379.718,627.74,365.466,624.247,350.449z"/>
	<path fill="#D39B8D" d="M564.159,311.61c0,0,9.662,29.324,38.238,70.738c29.549-38.4,36.426-77.447,36.426-77.447L564.159,311.61z"
		/>
	<polygon fill="#B2AF9E" points="570.507,305.582 637.661,300.338 643.912,314.477 566.991,321.777 	"/>
	<path fill="#D39B8D" d="M630.585,275.901c0,0,0.489,20.574,5.812,37.637c-5.748,13.342-20.665,58.255-34.801,58.741
		c-9.454,0.325-17.629-38.683-25.915-48.272c3.926-28.605,2.538-41.738,2.538-41.738S607.31,287.796,630.585,275.901z"/>
	<polygon fill="#B7857E" points="612.486,364.371 608.506,354.736 633.659,302.611 636.396,313.539 	"/>
	<path fill="#B2AF9E" d="M602.398,382.348c4.823-6.267,9.031-12.549,12.715-18.678l-2.627-4.976l-9.413,11.558l-5.393-11.558
		l-6.476,6.559C594.563,370.669,598.278,376.378,602.398,382.348z"/>
	<path opacity="0.5" fill="#335DA0" d="M594.04,354.736l3.639,3.958c0,0-15.616,22.119-24.011,35.624
		c-15.695-22.037-29.742-63.37-31.661-71.835C570.018,337.378,594.04,354.736,594.04,354.736z"/>
	<path fill="#B7857E" d="M581.332,282.735c-1.094,0.09-2.11,0.185-3.052,0.285c0.201,2.865,0.691,14.097-1.808,34.84
		c4.249,2.326,10.702,4.644,18.739,3.7c14.853-1.744,25.645-17.353,29.036-38.222c-5.348-0.425-10.236-0.716-14.708-0.904
		C597.431,284.308,586.482,283.392,581.332,282.735z"/>
	<path fill="#F4F1DF" d="M542.007,322.483c0,0,14.755-14.289,28.501-17.582c9.966,22.128,27.172,53.793,27.172,53.793
		s-14.201,13.254-24.764,27.724C553.593,354.168,542.007,322.483,542.007,322.483z"/>
	<path fill="#F4F1DF" d="M612.486,358.694c0,0,9.735,13.745,12.651,31.985c24.816-43.08,30.861-78.038,30.861-78.038
		s-5.81-7.003-18.337-12.303C630.237,318.424,612.486,358.694,612.486,358.694z"/>
	<path fill="#F9C2B2" d="M679.55,188.504c0.4-3.605-2.533-6.715-6.159-6.608c-4.537,0.134-8.338,0.323-9.958,0.409l4.116-49.87
		c0,0-26.758-43.796-69.887-34.53c-22.783,4.895-59.503,16.071-59.503,16.071s-0.804,38.659-0.35,68.314
		c-1.748-0.091-5.375-0.267-9.672-0.394c-3.626-0.107-6.558,3.002-6.159,6.608c2.125,19.172,13.145,27.9,17.98,30.851
		c2.582,20.718,8.167,40.961,21.777,65.291c11.569,8.744,26.202,12.604,26.202,12.604s8.563,0.18,28.995-4.818
		c8.328-4.336,22.389-16.328,31.567-24.525c5.728-5.116,9.161-12.312,9.518-19.983l2.299-27.848
		C664.096,218.056,677.21,209.608,679.55,188.504z"/>
	<path fill="#FCD2C8" d="M597.985,181.46c0,0,4.85-12.537,10.141-17.213c-3.034,24.46-2.087,35.014-2.087,35.014
		S598.509,195.024,597.985,181.46z"/>
	<path fill="#FCD2C8" d="M679.55,188.504c0.399-3.605-2.533-6.715-6.159-6.608c-4.537,0.134-8.338,0.322-9.958,0.409l4.116-49.87
		c0,0-2.284-3.728-6.586-8.777c-1.138,2.943-3.651,5.317-6.833,6.4c-5.172,1.759-10.24,3.858-15.619,4.866
		c4.979,9.715,16.548,34.669,9.652,44.752c2.598,34.699,6.054,77.124-31.23,112.755c8.328-4.336,22.389-16.327,31.567-24.525
		c4.256-3.802,7.238-8.753,8.64-14.193c0.033-0.133,0.063-0.268,0.096-0.402c0.426-1.755,0.697-3.557,0.782-5.388l2.298-27.848
		c-0.306-29.748,2.469-34.188,2.469-34.188s14.719-3.805,12.433,18.025C677.244,199.745,678.865,194.68,679.55,188.504z"/>
	<path fill="#D39B8D" d="M554.105,236.826c-3.122-21.945-3.815-49.506,2.572-58.597c-15.811-11.866-2.919-47.279-2.919-47.279
		l-15.75-8.507c-0.208,13.032-0.523,38.718-0.2,59.846c-1.748-0.091-5.375-0.267-9.672-0.394c-3.626-0.107-6.558,3.002-6.159,6.608
		c0.357,3.219,0.981,6.119,1.768,8.772c5.031-12.964,13.924-8.568,13.924-8.568s1.521,20.811,2.285,30.645
		c0.001,0.001,0.002,0.001,0.003,0.002c2.582,20.718,8.167,40.961,21.777,65.291c11.569,8.744,26.202,12.604,26.202,12.604
		C558.644,272.601,557.227,258.771,554.105,236.826z"/>
	<path fill="#D39B8D" d="M545.66,145.752c0,0,52.645-33.763,74.728-29.93c1.825-4.015-1.642-5.475-1.642-5.475
		s-42.158,4.015-71.723,25.003C540.635,138.635,545.66,145.752,545.66,145.752z"/>
	<path fill="#D39B8D" d="M550.28,200.648c0,0,23.48-5.065,28.567-12.781c-13.18,1.764-24.973-6.113-24.973-6.113
		S548.727,191.553,550.28,200.648z"/>
	<g>
		<path fill="#FFFFFF" d="M619.085,178.078l-3.891,1.415c-1.52,0.553-1.84,2.572-0.547,3.544c2.788,2.098,7.579,4.831,13.612,4.831
			c7.051,0,12.665-1.178,15.959-3.302c1.524-0.983,1.108-3.332-0.662-3.723c-10.113-2.236-21.469-2.795-23.702-2.886
			C619.588,177.945,619.335,177.987,619.085,178.078z"/>
		<circle fill="#3C5631" cx="629.766" cy="181.717" r="5.412"/>
		<circle fill="#252A33" cx="629.766" cy="181.717" r="2.361"/>
		<circle fill="#9ED186" cx="632.057" cy="181.529" r="1.602"/>
		<path fill="#252A33" d="M611.951,180.671c0,0,0.44-0.375,1.3-0.915c0.864-0.518,2.145-1.216,3.778-1.813
			c0.815-0.299,1.71-0.61,2.677-0.847c0.967-0.237,1.992-0.509,3.074-0.634c1.076-0.181,2.197-0.294,3.341-0.361
			c1.143-0.091,2.306-0.021,3.469-0.024c1.158,0.088,2.316,0.189,3.449,0.331c1.127,0.183,2.224,0.431,3.286,0.64
			c1.05,0.269,2.051,0.587,2.996,0.878c0.948,0.28,1.801,0.69,2.598,1.014c1.605,0.621,2.834,1.4,3.702,1.898
			c0.861,0.516,1.335,0.837,1.335,0.837s-0.581-0.066-1.565-0.226c-0.49-0.085-1.086-0.179-1.752-0.322
			c-0.663-0.154-1.437-0.233-2.257-0.381c-0.828-0.117-1.704-0.309-2.642-0.441c-0.941-0.12-1.929-0.236-2.937-0.416
			c-1.019-0.11-2.075-0.176-3.135-0.321c-1.066-0.071-2.149-0.144-3.232-0.216c-1.082-0.012-2.167-0.091-3.233-0.075
			c-1.065,0.026-2.121-0.031-3.136,0.052c-2.041,0.059-3.94,0.265-5.589,0.435C614.2,180.165,611.951,180.671,611.951,180.671z"/>
		<path fill="#D39B8D" d="M611.951,174.863c0,0,0.44-0.375,1.3-0.915c0.864-0.518,2.145-1.216,3.778-1.813
			c0.815-0.299,1.71-0.611,2.677-0.847c0.967-0.237,1.992-0.509,3.074-0.634c1.076-0.181,2.197-0.294,3.341-0.361
			c1.143-0.092,2.306-0.021,3.469-0.024c1.158,0.088,2.316,0.189,3.449,0.331c1.127,0.183,2.224,0.431,3.286,0.64
			c1.05,0.269,2.051,0.587,2.996,0.878c0.948,0.28,1.801,0.69,2.598,1.014c1.605,0.621,2.834,1.4,3.702,1.898
			c0.861,0.516,1.335,0.837,1.335,0.837s-0.581-0.066-1.565-0.226c-0.49-0.085-1.086-0.179-1.752-0.322
			c-0.663-0.154-1.437-0.233-2.257-0.381c-0.828-0.117-1.704-0.309-2.642-0.441c-0.941-0.121-1.929-0.236-2.937-0.416
			c-1.019-0.11-2.075-0.176-3.135-0.321c-1.066-0.071-2.149-0.143-3.232-0.216c-1.082-0.012-2.167-0.091-3.233-0.075
			c-1.065,0.026-2.121-0.031-3.136,0.052c-2.041,0.059-3.94,0.265-5.589,0.435C614.2,174.356,611.951,174.863,611.951,174.863z"/>
	</g>
	<g>
		<path fill="#FFFFFF" d="M555.525,178.078l-3.891,1.415c-1.52,0.553-1.84,2.572-0.547,3.544c2.788,2.098,7.579,4.831,13.612,4.831
			c7.051,0,12.665-1.178,15.959-3.302c1.524-0.983,1.108-3.332-0.662-3.723c-10.113-2.236-21.469-2.795-23.702-2.886
			C556.028,177.945,555.775,177.987,555.525,178.078z"/>
		<circle fill="#3C5631" cx="566.206" cy="181.717" r="5.412"/>
		<circle fill="#252A33" cx="566.206" cy="181.717" r="2.361"/>
		<circle fill="#9ED186" cx="568.497" cy="181.529" r="1.602"/>
		<path fill="#252A33" d="M548.391,180.671c0,0,0.44-0.375,1.3-0.915c0.864-0.518,2.145-1.216,3.778-1.813
			c0.815-0.299,1.71-0.61,2.677-0.847c0.967-0.237,1.992-0.509,3.074-0.634c1.076-0.181,2.197-0.294,3.341-0.361
			c1.143-0.091,2.306-0.021,3.469-0.024c1.158,0.088,2.316,0.189,3.449,0.331c1.127,0.183,2.225,0.431,3.286,0.64
			c1.05,0.269,2.051,0.587,2.996,0.878c0.948,0.28,1.801,0.69,2.598,1.014c1.605,0.621,2.834,1.4,3.702,1.898
			c0.861,0.516,1.335,0.837,1.335,0.837s-0.581-0.066-1.565-0.226c-0.49-0.085-1.086-0.179-1.752-0.322
			c-0.663-0.154-1.437-0.233-2.257-0.381c-0.828-0.117-1.704-0.309-2.642-0.441c-0.941-0.12-1.929-0.236-2.937-0.416
			c-1.019-0.11-2.075-0.176-3.135-0.321c-1.066-0.071-2.149-0.144-3.232-0.216c-1.082-0.012-2.167-0.091-3.233-0.075
			c-1.065,0.026-2.121-0.031-3.136,0.052c-2.041,0.059-3.94,0.265-5.589,0.435C550.64,180.165,548.391,180.671,548.391,180.671z"/>
		<path fill="#D39B8D" d="M548.391,174.863c0,0,0.44-0.375,1.3-0.915c0.864-0.518,2.145-1.216,3.778-1.813
			c0.815-0.299,1.71-0.611,2.677-0.847c0.967-0.237,1.992-0.509,3.074-0.634c1.076-0.181,2.197-0.294,3.341-0.361
			c1.143-0.092,2.306-0.021,3.469-0.024c1.158,0.088,2.316,0.189,3.449,0.331c1.127,0.183,2.225,0.431,3.286,0.64
			c1.05,0.269,2.051,0.587,2.996,0.878c0.948,0.28,1.801,0.69,2.598,1.014c1.605,0.621,2.834,1.4,3.702,1.898
			c0.861,0.516,1.335,0.837,1.335,0.837s-0.581-0.066-1.565-0.226c-0.49-0.085-1.086-0.179-1.752-0.322
			c-0.663-0.154-1.437-0.233-2.257-0.381c-0.828-0.117-1.704-0.309-2.642-0.441c-0.941-0.121-1.929-0.236-2.937-0.416
			c-1.019-0.11-2.075-0.176-3.135-0.321c-1.066-0.071-2.149-0.143-3.232-0.216c-1.082-0.012-2.167-0.091-3.233-0.075
			c-1.065,0.026-2.121-0.031-3.136,0.052c-2.041,0.059-3.94,0.265-5.589,0.435C550.64,174.356,548.391,174.863,548.391,174.863z"/>
	</g>
	<path fill="#363B49" d="M594.564,133.28c0,0,33.359,5.252,57.138-4.329c7.994,23.193,10.893,53.4,10.893,53.4l8.532-0.496
		c0,0,12.173-55.611,11.038-87.258c7.288-12.796,4.891-23.74,4.891-23.74s-14.536-2.552-28.244-6.061
		c-13.709-3.508-34.08-3.645-43.622-2.052C620.449,50.463,620.432,50,620.432,50s-25.074,6.12-38.659,10.46
		c-13.586,4.339-54.495,24.019-54.656,44.607c-0.162,20.588,7.001,85.897,7.001,85.897h4.041c0,0-2.114-32.763,1.933-45.241
		c37.749-26.794,64.148-29.327,78.561-31.476C610.064,127.442,603.367,127.767,594.564,133.28z"/>
	<path fill="#2D323D" d="M527.117,105.067c-0.161,20.588,7.001,85.897,7.001,85.897h4.041c0,0-2.114-32.763,1.933-45.241
		c37.749-26.794,64.148-29.327,78.561-31.476c-8.145,12.513-14.592,13.46-22.743,18.225c9.969-4.067,26.419-12.479,36.147-26.577
		c-11.703,3.731-37.024-3.438-73.096,22.345C580.119,76.674,584.438,66.335,620.432,50c0,0-25.074,6.12-38.659,10.46
		C568.187,64.799,527.278,84.479,527.117,105.067z"/>
	<path fill="#D39B8D" d="M596.315,233.208c0,0-10.676-1.592-14.932-6.055c4.791-8.547,12.304-33.187,7.565-65.458
		c-19.493-6.88-43.288-0.388-43.288-0.388s30.268-1.491,40.193,2.977c7.809,13.608-4.259,57.722-15.099,68.492
		C579.727,240.25,593.76,232.495,596.315,233.208z"/>
	<path fill="#E0E1E2" d="M571.573,245.261c0,0,41.442,1.717,60.245-2.064c-5.047,8.526-15.307,17.509-15.307,17.509
		s-24.809,3.767-34.875,1.462C573.172,256.225,571.573,245.261,571.573,245.261z"/>
	<path fill="#F8FAFF" d="M616.041,260.776c3.259-3.085,9.59-9.451,13.229-15.597c-15.756,3.168-47.396,2.476-57.24,2.169
		c0.907,3.467,3.419,10.477,9.606,14.822C590.899,264.289,612.63,261.271,616.041,260.776z"/>
	<path fill="#434A5B" d="M608.141,162.114c0,0,2.635-0.937,6.763-1.483c2.059-0.311,4.484-0.486,7.09-0.536
		c1.301,0.006,2.652-0.006,4.019,0.079c1.364,0.128,2.759,0.171,4.14,0.374c1.381,0.2,2.761,0.392,4.105,0.69
		c1.354,0.238,2.661,0.591,3.917,0.967c0.628,0.185,1.25,0.347,1.849,0.541c0.59,0.223,1.167,0.441,1.729,0.654
		c1.123,0.421,2.179,0.824,3.106,1.322c0.942,0.456,1.79,0.9,2.536,1.293c0.726,0.443,1.341,0.857,1.848,1.189
		c1.011,0.673,1.567,1.077,1.567,1.077s-0.672-0.2-1.812-0.582c-0.563-0.198-1.247-0.437-2.032-0.713
		c-0.804-0.222-1.706-0.473-2.673-0.775c-0.96-0.322-2.042-0.541-3.161-0.835c-0.561-0.139-1.137-0.283-1.725-0.429
		c-0.6-0.104-1.203-0.246-1.82-0.371c-0.616-0.127-1.243-0.256-1.877-0.387c-0.643-0.092-1.29-0.197-1.94-0.317
		c-1.296-0.259-2.633-0.406-3.966-0.573c-1.325-0.229-2.672-0.3-3.988-0.456c-1.323-0.106-2.625-0.211-3.885-0.312
		c-1.264-0.041-2.487-0.172-3.651-0.196c-1.166-0.043-2.269-0.083-3.287-0.121c-2.04-0.054-3.752-0.083-4.954-0.09
		C608.831,162.118,608.141,162.114,608.141,162.114z"/>
	<path fill="#434A5B" d="M544.475,162.907c0,0,2.389-1.534,6.361-2.996c0.991-0.365,2.068-0.764,3.236-1.087
		c1.157-0.365,2.397-0.689,3.691-0.977c1.291-0.299,2.643-0.539,4.018-0.768c1.388-0.143,2.792-0.361,4.21-0.446
		c1.422-0.04,2.838-0.153,4.241-0.079c1.401,0.015,2.777,0.101,4.103,0.285c1.328,0.134,2.603,0.322,3.794,0.626
		c1.194,0.271,2.325,0.486,3.326,0.878c1.012,0.337,1.927,0.674,2.731,0.972c0.789,0.352,1.455,0.712,2.006,0.988
		c1.097,0.566,1.702,0.91,1.702,0.91s-0.701-0.13-1.892-0.392c-0.589-0.136-1.304-0.301-2.125-0.49
		c-0.837-0.121-1.775-0.257-2.783-0.436c-1.001-0.211-2.125-0.239-3.283-0.383c-1.158-0.158-2.394-0.175-3.666-0.237
		c-1.268-0.109-2.587-0.029-3.923-0.042c-1.335-0.043-2.693,0.106-4.049,0.167c-1.359,0.049-2.712,0.228-4.049,0.333
		c-1.326,0.212-2.651,0.29-3.915,0.51c-1.264,0.214-2.5,0.362-3.659,0.588c-1.164,0.215-2.264,0.418-3.28,0.605
		c-2.029,0.408-3.729,0.766-4.918,1.04C545.158,162.75,544.475,162.907,544.475,162.907z"/>
	<path fill="#1F51CC" d="M658.171,172.733l-0.111-0.804l-0.755-0.298c-15.534-6.113-38.246-3.974-47.285-2.771
		c-1.415,0.188-2.679,0.976-3.464,2.161c-0.365,0.55-0.599,1.165-0.721,1.8c-3.134-0.833-9.664-2.071-15.734-0.128
		c-0.129-0.588-0.344-1.159-0.684-1.671c-0.787-1.185-2.05-1.973-3.466-2.162c-9.041-1.203-31.75-3.34-47.286,2.771l-0.755,0.298
		l-0.111,0.803c-1.401,10.122,4.283,20.306,4.525,20.735l0.347,0.614l0.7,0.081c0.687,0.08,13.21,1.512,24.46,1.512
		c3.516,0,6.909-0.14,9.774-0.505c1.446-0.184,2.768-0.929,3.63-2.043c4.745-6.149,7.291-12.727,8.628-17.391
		c6.363-2.561,14.025-0.617,16.258,0.056c1.344,4.662,3.888,11.214,8.614,17.335c0.873,1.131,2.161,1.856,3.628,2.042
		c2.867,0.365,6.257,0.505,9.774,0.505c11.25-0.001,23.773-1.432,24.46-1.512l0.701-0.081l0.347-0.614
		C653.889,193.038,659.571,182.855,658.171,172.733z M587.384,174.328c-1.215,4.445-3.65,11.021-8.345,17.103
		c-0.413,0.535-1.064,0.894-1.783,0.986c-10.491,1.335-28.966-0.515-32.841-0.931c-1.118-2.2-4.7-9.949-3.963-17.566
		c14.913-5.51,36.456-3.463,45.133-2.308c0.63,0.084,1.171,0.419,1.519,0.945C587.453,173.083,587.554,173.712,587.384,174.328z
		 M651.554,191.485c-3.875,0.417-22.348,2.265-32.84,0.931c-0.719-0.091-1.37-0.451-1.782-0.985
		c-4.693-6.079-7.131-12.657-8.347-17.103c-0.168-0.615-0.068-1.244,0.282-1.771c0.35-0.526,0.889-0.861,1.519-0.945
		c4.253-0.566,11.595-1.345,19.733-1.345c8.467,0,17.796,0.845,25.399,3.653C656.252,181.519,652.672,189.281,651.554,191.485z"/>
	<path fill="#EDB6A9" d="M583.414,268.136c0,0,12.487,3.642,28.268-1.041c-1.041,2.601-5.644,10.406-5.644,10.406
		S589.311,280.276,583.414,268.136z"/>
	<path fill="#FCD2C8" d="M595.21,162.89"/>
	<path fill="#FCD2C8" d="M584.802,226.861c0,0,12.055,2.081,18.254-2.775c1.343,4.856-3.86,8.397-3.86,8.397
		S587.75,230.502,584.802,226.861z"/>
	<path fill="#464F5E" d="M608.126,130.95c0,0,56.509,11.043,74.545-54.509C661.86,75.171,650.123,115.046,608.126,130.95z"/>
	<path fill="#464F5E" d="M611.683,56.352c0,0-4.509,13.336-26.881,34.114C594.803,67.772,611.683,56.352,611.683,56.352z"/>
	<path fill="#D39B8D" d="M664.057,190.118c0,0,0.383-0.175,1.106-0.339c0.72-0.149,1.79-0.322,3.14-0.064
		c0.669,0.149,1.423,0.402,2.13,0.94c0.694,0.549,1.3,1.361,1.594,2.302c0.103,0.459,0.238,0.936,0.261,1.42
		c0.037,0.382,0.073,0.77,0.037,1.269c-0.018,0.957-0.192,1.786-0.388,2.66c-0.238,0.844-0.512,1.673-0.866,2.443
		c-0.333,0.779-0.751,1.497-1.163,2.175c-0.398,0.687-0.86,1.301-1.307,1.866c-0.432,0.577-0.898,1.076-1.331,1.527
		c-0.857,0.911-1.683,1.558-2.26,1.998c-0.594,0.426-0.951,0.643-0.951,0.643s0.188-0.379,0.535-1.006
		c0.335-0.622,0.814-1.509,1.389-2.575c1.109-2.107,2.517-4.913,3.269-7.764c0.172-0.696,0.329-1.455,0.388-2.088
		c0.046-0.293,0.06-0.693,0.073-1.09c0.028-0.296-0.033-0.575-0.043-0.86c-0.122-0.521-0.3-0.985-0.62-1.39
		c-0.346-0.376-0.786-0.707-1.254-0.968c-0.965-0.482-1.944-0.736-2.629-0.89C664.475,190.174,664.057,190.118,664.057,190.118z"/>
	<path fill="#D39B8D" d="M537.578,191.505c0,0-0.384-0.175-1.106-0.339c-0.72-0.149-1.79-0.321-3.14-0.064
		c-0.669,0.149-1.423,0.401-2.13,0.94c-0.694,0.549-1.3,1.361-1.594,2.302c-0.103,0.459-0.238,0.936-0.261,1.42
		c-0.037,0.382-0.073,0.77-0.037,1.269c0.018,0.957,0.192,1.786,0.388,2.66c0.238,0.844,0.512,1.673,0.866,2.443
		c0.333,0.779,0.751,1.497,1.163,2.175c0.398,0.687,0.86,1.3,1.307,1.866c0.432,0.577,0.898,1.076,1.331,1.527
		c0.857,0.911,1.683,1.558,2.26,1.998c0.594,0.426,0.951,0.643,0.951,0.643s-0.188-0.379-0.535-1.006
		c-0.335-0.622-0.814-1.509-1.389-2.575c-1.109-2.107-2.517-4.912-3.269-7.764c-0.172-0.696-0.329-1.455-0.389-2.088
		c-0.046-0.293-0.06-0.693-0.073-1.09c-0.028-0.296,0.033-0.575,0.043-0.86c0.122-0.52,0.3-0.985,0.62-1.39
		c0.346-0.377,0.786-0.707,1.254-0.968c0.965-0.482,1.944-0.736,2.629-0.89C537.16,191.561,537.578,191.505,537.578,191.505z"/>
	<path fill="#EAE6D6" d="M550.292,333.508c-1.068-2.452-0.077-5.326,2.298-6.556c4.91-2.543,12.996-5.651,17.254-1.359
		c5.03,5.071,15.404,23.012,19.57,30.38c1.043,1.844,0.698,4.147-0.842,5.602c-3.196,3.019-8.658,8.484-12.673,14.119
		c-1.877,2.635-5.927,2.198-7.264-0.747C562.134,360.621,553.884,341.756,550.292,333.508z"/>
	<path fill="#FFFDF3" d="M644.054,351.573c9.227-23.267,11.945-38.933,11.945-38.933s-5.81-7.003-18.337-12.303
		c-4.038,9.837-11.128,26.228-16.758,39.142c4.78-7.093,11.417-17.163,15.493-24.29c6.933-12.122,12.724-0.37,11.863,8.901
		C647.83,328.714,645.89,340.708,644.054,351.573z"/>
	<path fill="#4076CC" d="M627.348,627.098c0,0-53.315,7.506-110.255-3.136c6.57-96.783-1.825-171.973-14.418-198.983
		c-19.892-52.56-15.591-86.989-15.591-86.989l46.353-4.498C533.437,333.491,519.332,530.646,627.348,627.098z"/>
	<path fill="#335DA0" d="M497.952,382.69c0,0,0.258,0.914,0.741,2.628c0.479,1.716,1.169,4.237,1.975,7.463
		c0.804,3.227,1.756,7.152,2.797,11.666c1.022,4.518,2.194,9.615,3.259,15.218c1.159,5.585,2.231,11.67,3.403,18.1
		c1.126,6.438,2.243,13.242,3.253,20.301c0.9,7.074,2.026,14.361,2.779,21.813c0.415,3.722,0.833,7.473,1.253,11.239
		c0.401,3.768,0.683,7.563,1.031,11.351c0.291,3.793,0.633,7.583,0.867,11.365c0.201,3.784,0.401,7.554,0.599,11.294
		c0.483,7.475,0.605,14.847,0.782,21.978c0.044,1.783,0.088,3.55,0.131,5.301c0.059,1.751,0.085,3.485,0.035,5.202
		c-0.051,3.433-0.102,6.791-0.151,10.06c-0.049,3.268-0.096,6.447-0.143,9.521c-0.144,3.072-0.283,6.04-0.417,8.89
		c-0.277,5.698-0.529,10.92-0.869,15.54c-0.439,4.613-0.822,8.634-1.137,11.946c-0.667,6.615-1.048,10.394-1.048,10.394
		s0.175-3.795,0.481-10.437c0.171-3.316,0.38-7.344,0.618-11.963c0.093-4.624,0.198-9.84,0.312-15.531
		c0.058-2.844,0.119-5.806,0.181-8.871c-0.035-3.067-0.072-6.237-0.109-9.497c-0.068-6.518-0.117-13.388-0.418-20.492
		c-0.238-7.105-0.424-14.448-0.971-21.894c-0.23-3.725-0.462-7.479-0.695-11.248c-0.263-3.767-0.647-7.54-0.956-11.318
		c-0.314-3.778-0.562-7.562-0.928-11.32c-0.386-3.757-0.77-7.499-1.152-11.212c-0.686-7.435-1.745-14.707-2.581-21.768
		c-0.434-3.529-1.011-6.978-1.442-10.373c-0.479-3.388-0.87-6.716-1.399-9.932c-1-6.442-1.91-12.541-2.92-18.141
		c-1.911-11.221-3.658-20.55-4.998-27.057c-0.679-3.253-1.213-5.808-1.576-7.551C498.156,383.618,497.952,382.69,497.952,382.69z"/>
	<path fill="#4E80E5" d="M713.544,346.859c0,0,0.48,0.684,1.286,2.03c0.833,1.336,1.966,3.337,3.366,5.919
		c1.305,2.619,3.009,5.767,4.608,9.528c1.744,3.708,3.421,8.005,5.234,12.711c0.895,2.357,1.695,4.854,2.597,7.42
		c0.9,2.568,1.763,5.244,2.519,8.03c0.793,2.78,1.607,5.636,2.44,8.555c0.784,2.932,1.407,5.969,2.132,9.04
		c1.534,6.128,2.493,12.578,3.632,19.106c0.289,1.632,0.556,3.273,0.728,4.932c0.195,1.656,0.391,3.316,0.587,4.98
		c0.381,3.33,0.763,6.673,1.144,10.016c0.385,6.715,0.868,13.428,1.082,20.041c0.013,6.619,0.004,13.132-0.104,19.425
		c-0.369,6.289-0.824,12.359-1.239,18.106c-0.148,2.878-0.565,5.657-0.912,8.346c-0.37,2.686-0.728,5.28-1.072,7.771
		c-0.682,4.978-1.265,9.54-2.197,13.525c-0.804,4.002-1.58,7.474-2.202,10.331c-1.255,5.714-2.055,8.952-2.055,8.952
		s0.173-3.353,0.619-9.172c0.228-2.909,0.486-6.44,0.867-10.47c0.46-4.022,0.518-8.606,0.796-13.574
		c0.12-2.484,0.245-5.072,0.373-7.75c0.114-2.676,0.393-5.431,0.342-8.282c0.044-5.693,0.073-11.689,0.205-17.881
		c-0.154-6.195-0.384-12.59-0.5-19.086c-0.42-6.481-0.847-13.065-1.274-19.649c-0.354-3.278-0.707-6.557-1.06-9.822
		c-0.399-3.259-0.569-6.538-1.128-9.736c-0.999-6.411-1.719-12.772-2.96-18.832c-0.557-3.044-1.105-6.037-1.641-8.966
		c-0.633-2.911-1.253-5.759-1.857-8.531c-0.314-1.384-0.571-2.765-0.921-4.098c-0.343-1.335-0.681-2.651-1.013-3.944
		c-0.66-2.589-1.23-5.116-1.902-7.503c-1.41-4.752-2.568-9.169-3.858-12.996c-1.191-3.867-2.396-7.177-3.334-9.938
		c-1.05-2.707-1.795-4.884-2.417-6.313C713.862,347.632,713.544,346.859,713.544,346.859z"/>
	<path fill="#302E30" d="M740.805,1107.606c1.667,1.418,0.555,3.087-1.845,2.651c-6.942-1.262-15.807-3.414-23.305-6.957
		c-14.854-7.018,5.049-9.756,14.797-5.946C737.098,1099.951,736.681,1104.099,740.805,1107.606z"/>
	<path fill="#302E30" d="M500.303,1122.497c13.505-4.745,24.82-13.71,27.375-9.957c2.555,3.752-7.665,11.417-21.9,17.257
		c-14.235,5.84-33.58,2.555-25.185,0C488.987,1127.242,500.303,1122.497,500.303,1122.497z"/>
</g>
</svg>
