<?xml version="1.0" encoding="utf-8"?>
<!--Designed by Vexels.com - 2018 All Rights Reserved - https://vexels.com/terms-and-conditions/-->
<svg version="1.1" id="Layer_1" xmlns="http://www.w3.org/2000/svg" xmlns:xlink="http://www.w3.org/1999/xlink" x="0px" y="0px"
	 viewBox="0 0 1200 1200" enable-background="new 0 0 1200 1200" xml:space="preserve">
<g>
	<polygon opacity="0.2" fill="#777777" points="960.124,183.749 960.124,395.247 960.124,1149.077 960.124,1150 199.18,1150 
		199.18,938.503 199.18,184.673 199.18,183.749 	"/>
	<polygon fill="#664F40" points="960.125,169.872 960.125,381.37 960.125,1135.2 960.125,1136.123 212.906,1136.123 
		212.906,924.626 212.906,170.795 212.906,169.872 	"/>
	<polygon fill="#84664E" points="960.125,159.162 960.125,370.659 960.125,1124.49 960.125,1125.413 212.906,1125.413 
		212.906,913.915 212.906,160.085 212.906,159.162 	"/>
	<path opacity="0.3" fill="#777777" d="M960.124,159.162v211.497v728.317c-35.831,0.285-102.028-1.982-174.542-18.356
		c-103.615-23.396-484.857-140.725-517.259-150.713c-16.696-4.6-27.443-19.456-27.443-42.403V159.162H960.124z"/>
	
		<linearGradient id="SVGID_1_" gradientUnits="userSpaceOnUse" x1="3734.0444" y1="939.4431" x2="3425.2803" y2="353.1377" gradientTransform="matrix(-1 0 0 1 4185.1323 0)">
		<stop  offset="0" style="stop-color:#FFFFFF"/>
		<stop  offset="1" style="stop-color:#E8E8E8"/>
	</linearGradient>
	<path fill="url(#SVGID_1_)" d="M1000.82,122.344v965.327c0,0-94.275,6.983-202.517-17.458
		c-103.615-23.397-484.857-140.725-517.259-150.713c-16.696-4.6-27.442-19.456-27.442-42.404V122.344H1000.82z"/>
	<g>
		<path fill="#B6E3FF" d="M349.11,293.211h556.199c1.424,0,2.576-1.152,2.576-2.576c0-1.423-1.152-2.576-2.576-2.576H349.11
			c-1.424,0-2.575,1.152-2.575,2.576C346.535,292.059,347.687,293.211,349.11,293.211z"/>
		<path fill="#B6E3FF" d="M905.309,367.099H349.11c-1.424,0-2.575,1.152-2.575,2.576c0,1.423,1.152,2.576,2.575,2.576h556.199
			c1.424,0,2.576-1.152,2.576-2.576C907.885,368.25,906.733,367.099,905.309,367.099z"/>
		<path fill="#B6E3FF" d="M905.309,446.137H349.11c-1.424,0-2.575,1.152-2.575,2.576c0,1.424,1.152,2.576,2.575,2.576h556.199
			c1.424,0,2.576-1.152,2.576-2.576C907.885,447.289,906.733,446.137,905.309,446.137z"/>
		<path fill="#B6E3FF" d="M905.309,525.173H349.11c-1.424,0-2.575,1.152-2.575,2.576c0,1.423,1.152,2.576,2.575,2.576h556.199
			c1.424,0,2.576-1.152,2.576-2.576C907.885,526.325,906.733,525.173,905.309,525.173z"/>
		<path fill="#B6E3FF" d="M905.309,604.211H349.11c-1.424,0-2.575,1.152-2.575,2.576s1.152,2.576,2.575,2.576h556.199
			c1.424,0,2.576-1.152,2.576-2.576S906.733,604.211,905.309,604.211z"/>
		<path fill="#B6E3FF" d="M905.309,683.249H349.11c-1.424,0-2.575,1.152-2.575,2.576c0,1.424,1.152,2.576,2.575,2.576h556.199
			c1.424,0,2.576-1.152,2.576-2.576C907.885,684.402,906.733,683.249,905.309,683.249z"/>
		<path fill="#B6E3FF" d="M905.309,762.288H349.11c-1.424,0-2.575,1.152-2.575,2.576c0,1.423,1.152,2.576,2.575,2.576h556.199
			c1.424,0,2.576-1.152,2.576-2.576C907.885,763.44,906.733,762.288,905.309,762.288z"/>
		<path fill="#B6E3FF" d="M905.309,841.323H349.11c-1.424,0-2.575,1.152-2.575,2.576c0,1.424,1.152,2.576,2.575,2.576h556.199
			c1.424,0,2.576-1.152,2.576-2.576C907.885,842.476,906.733,841.323,905.309,841.323z"/>
		<path fill="#B6E3FF" d="M905.309,920.362H480.758c3.41,1.62,6.768,3.34,10.081,5.151h414.471c1.424,0,2.576-1.152,2.576-2.576
			C907.885,921.514,906.733,920.362,905.309,920.362z"/>
		<path fill="#B6E3FF" d="M905.309,999.401H605.394c3.031,1.724,6.075,3.437,9.117,5.151h290.798c1.424,0,2.576-1.152,2.576-2.576
			S906.733,999.401,905.309,999.401z"/>
	</g>
	<path opacity="0.3" fill="#777777" d="M836.762,321.258c22.052,0,39.991-17.941,39.991-39.991V151.501
		c0-2.844-2.304-5.151-5.151-5.151c-2.847,0-5.151,2.307-5.151,5.151v129.767c0,16.371-13.32,29.689-29.689,29.689
		s-29.689-13.318-29.689-29.689V122.343h-10.302v158.924C796.771,303.318,814.709,321.258,836.762,321.258z"/>
	<path opacity="0.1" fill="#777777" d="M898.73,122.343v128.202c0,2.844,2.304,5.151,5.151,5.151c2.847,0,5.151-2.307,5.151-5.151
		V122.343H898.73z"/>
	
		<linearGradient id="SVGID_2_" gradientUnits="userSpaceOnUse" x1="3516.7373" y1="921.1954" x2="3553.7427" y2="1032.212" gradientTransform="matrix(-1 0 0 1 4185.1323 0)">
		<stop  offset="0.2634" style="stop-color:#E8E8E8"/>
		<stop  offset="0.5968" style="stop-color:#D3D3D3"/>
		<stop  offset="0.7688" style="stop-color:#D3D3D3"/>
		<stop  offset="0.9194" style="stop-color:#E8E8E8"/>
		<stop  offset="0.9462" style="stop-color:#D3D3D3"/>
	</linearGradient>
	<path fill="url(#SVGID_2_)" d="M325.763,912.014c32.692-16.874,60.307-52.866,69.175-87.256c0,0,195.028,133.722,326.548,202.391
		c131.519,68.67,279.333,60.522,279.333,60.522s-94.275,6.983-202.517-17.458c-103.615-23.397-484.857-140.725-517.259-150.713
		C293.344,922.889,308.857,920.74,325.763,912.014z"/>
	<path fill="#777777" d="M830.776,60.302h32.279c16.368,0,29.689,13.318,29.689,29.689v32.262h10.302V89.991
		c0-22.05-17.938-39.991-39.991-39.991h-32.279c-22.053,0-39.991,17.941-39.991,39.991v186.126
		c0,22.051,17.938,39.991,39.991,39.991c22.052,0,39.991-17.941,39.991-39.991V146.35c0-2.844-2.304-5.151-5.151-5.151
		c-2.847,0-5.151,2.307-5.151,5.151v129.766c0,16.372-13.32,29.689-29.689,29.689c-16.369,0-29.689-13.317-29.689-29.689V89.991
		C801.087,73.62,814.407,60.302,830.776,60.302z"/>
	<g>
		<path fill="#C1C1C1" d="M795.936,276.116V89.991c0-20.632,16.786-37.415,37.415-37.415h-2.576
			c-20.629,0-37.415,16.784-37.415,37.415v186.126c0,20.632,16.786,37.416,37.415,37.416c0.435,0,0.856-0.051,1.288-0.065
			C812.033,312.779,795.936,296.313,795.936,276.116z"/>
		<path fill="#C1C1C1" d="M863.04,146.35v129.766c0,17.355-13.783,31.516-30.976,32.199c0.43,0.017,0.852,0.066,1.288,0.066
			c17.792,0,32.264-14.475,32.264-32.265V146.35c0-0.941,0.533-1.73,1.288-2.179c-0.385-0.229-0.809-0.396-1.288-0.396
			C864.197,143.774,863.04,144.929,863.04,146.35z"/>
		<path fill="#C1C1C1" d="M865.631,57.726h-2.576c17.792,0,32.264,14.474,32.264,32.264v27.111h2.576V89.991
			C897.895,72.201,883.423,57.726,865.631,57.726z"/>
	</g>
</g>
</svg>
