<?xml version="1.0" encoding="utf-8"?>
<!--Designed by Vexels.com - 2018 All Rights Reserved - https://vexels.com/terms-and-conditions/-->
<svg version="1.1" id="Layer_1" xmlns="http://www.w3.org/2000/svg" xmlns:xlink="http://www.w3.org/1999/xlink" x="0px" y="0px"
	 viewBox="0 0 1200 1200" enable-background="new 0 0 1200 1200" xml:space="preserve">
<g>
	<g>
		<g>
			<g>
				<polygon fill="#EF6B56" points="50,1150 124.373,993.253 198.746,836.506 281.12,918.88 363.494,1001.253 206.746,1075.626 				
					"/>
			</g>
			<g>
				<polygon fill="#2C5871" points="105.104,1033.864 77.552,1091.932 50,1149.999 108.068,1122.447 166.136,1094.896 
					135.619,1064.38 				"/>
			</g>
			<g>
				<polygon fill="#FCCF58" points="1089.71,275.036 1007.337,192.663 924.964,110.29 561.855,473.398 198.746,836.506 
					281.12,918.88 363.493,1001.253 726.602,638.145 				"/>
			</g>
			<g>
				<g>
					<g>
						<path fill="#2C5871" d="M311.336,949.692c-2.351-2.351-3.528-5.433-3.529-8.514c-0.001-3.082,1.175-6.164,3.529-8.518l359-359
							l359-359c2.353-2.354,5.436-3.529,8.517-3.529c3.082,0.001,6.163,1.178,8.514,3.529s3.528,5.433,3.529,8.514
							c0,3.082-1.175,6.164-3.529,8.518l-359,359l-359,359c-2.353,2.353-5.436,3.529-8.517,3.528
							C316.769,953.22,313.688,952.044,311.336,949.692z"/>
					</g>
				</g>
				<g>
					<g>
						<path fill="#2C5871" d="M250.306,888.662c-2.351-2.351-3.528-5.433-3.528-8.514c-0.001-3.081,1.175-6.164,3.528-8.517l359-359
							l359-359c2.354-2.354,5.436-3.529,8.518-3.529c3.082,0.001,6.163,1.178,8.514,3.529c2.351,2.351,3.528,5.433,3.529,8.514
							c0,3.081-1.175,6.164-3.529,8.517l-359,359l-359,359c-2.354,2.354-5.436,3.529-8.518,3.529
							C255.739,892.19,252.658,891.014,250.306,888.662z"/>
					</g>
				</g>
			</g>
		</g>
		<g>
			<path fill="#DA4620" d="M1089.71,275.036l-82.373-82.373l-82.373-82.373l20.107-20.108l20.108-20.108
				C978.561,56.691,996.101,50,1013.641,50c17.54,0,35.079,6.691,48.462,20.073l33.912,33.912l33.912,33.912
				c13.382,13.382,20.073,30.922,20.073,48.462s-6.691,35.079-20.073,48.462l-20.108,20.107L1089.71,275.036z"/>
		</g>
	</g>
	<g opacity="0.2">
		<path d="M1100.77,108.742l-513.604,515.04l-513.605,515.04l22.743-10.792l22.743-10.791l23.544-11.171l23.544-11.171
			l98.679-46.822l98.679-46.821l363.109-363.109l363.108-363.108l20.108-20.108l20.108-20.107
			c13.382-13.382,20.074-30.922,20.074-48.462s-6.692-35.08-20.074-48.462l-14.578-14.578L1100.77,108.742z"/>
	</g>
</g>
</svg>
